<mxfile host="app.diagrams.net" modified="2023-06-07T04:21:44.173Z" agent="Mozilla/5.0 (Macintosh; Intel Mac OS X 10_15_7) AppleWebKit/537.36 (KHTML, like Gecko) Chrome/113.0.0.0 Safari/537.36" version="21.3.7" etag="LZGnt8XXurO8ysGH0qcb" type="github">
  <diagram name="Page-1" id="tngVmRTNIPwcr26niG1A">
    <mxGraphModel>
      <root>
        <mxCell id="0" />
        <mxCell id="1" parent="0" />
      </root>
    </mxGraphModel>
  </diagram>
</mxfile>
